<svg width="277.91998" height="165.119995" xmlns="http://www.w3.org/2000/svg" content="%3Cmxfile%20host%3D%22app.diagrams.net%22%20modified%3D%222022-08-25T10%3A37%3A03.414Z%22%20agent%3D%225.0%20(Macintosh%3B%20Intel%20Mac%20OS%20X%2010_15_7)%20AppleWebKit%2F537.36%20(KHTML%2C%20like%20Gecko)%20Chrome%2F104.0.0.0%20Safari%2F537.36%22%20etag%3D%22jOnmD7fQEshyFEw38uSC%22%20version%3D%2220.2.6%22%3E%3Cdiagram%20id%3D%226f3RukWasASyZyXMdSxa%22%20name%3D%22Page-1%22%3EtZVNb6MwEIZ%2FDceNAEOAY%2FOx7R4qrRSpuz1aMAVrDUbGFLK%2Ffoe1%2BU6VVEpziDyv7RnzzIuxyD5vHyUts2eRALdcO2ktcrBcNwps%2FO%2BEsxZ8L9BCKlmiJWcUTuwvGNHsS2uWQDVbqITgipVzMRZFAbGaaVRK0cyXvQk%2Br1rS1FS0R%2BEUUw6rZb9YojKthm4w6k%2FA0qyv7GwjPZPTfrFJXGU0Ec1EIkeL7KUQSo%2Fydg%2B8Y9dz0fu%2BfzA7HExCoW7Z8Oy9lg08vLycozrblz9Cdoy%2BmSzvlNfmgc1h1bkn0GRMwamkcRc32GSL7DKVc4wcHNKq1NzfWAtYalcpKf4MsAgqpgZIBe2Hh3cGJGglEDkoecYlZoMbGorGRoM%2FmrEpThRsfK1m05aMMjVmSIf8Iy8cGGSfwRde54dp0KwY7D5L8g7cCCGbwL%2BKLrLX3Hrt7tDc68yUZLRI%2BQ3QpFBUMVFgiN2w70PNiRZui9bIvAvIvK%2FyGdne4LMieeguPIxiTquKxUtSdZF0vjp0lKBl6vdk%2FNqNO6vo8NBO5g5nE%2BiakKTLy3EBFs8lahnDNROsGzAB7F8A3GsSOHb9fX6MS9RNhZ%2BC4QGH%2FnrbcBMNv21gk3m73UUf9dOYJNMrdpHX9xe%2BsRfvkKIyBbVK9N8TA4VLNsFw%2FFLo5ePnlhz%2FAQ%3D%3D%3C%2Fdiagram%3E%3C%2Fmxfile%3E" version="1.1">
 <defs id="defs8">
  <clipPath id="clip-0">
   <path id="path2" d="m0,0l277.92188,0l0,164.85156l-277.92188,0l0,-164.85156zm0,0" clip-rule="nonzero"/>
  </clipPath>
  <clipPath id="clip-1">
   <path id="path5" d="m253,0l24.92188,0l0,22l-24.92188,0l0,-22zm0,0" clip-rule="nonzero"/>
  </clipPath>
 </defs>
 <g>
  <title>Layer 1</title>
  <g id="g12" clip-path="url(#clip-0)">
   <path id="path10" d="m0.35842,-0.52632l278,0l0,164.85156l-278,0l0,-164.85156zm0,0" fill="#ffffff" fill-rule="nonzero"/>
  </g>
  <path id="path14" d="m68.67003,13.55933l147.99218,0l0,147.99218l-147.99218,0l0,-147.99218zm0,0" stroke-miterlimit="4" stroke="rgb(0%, 0%, 0%)" stroke-width="3" fill="rgb(100%, 100%, 100%)" fill-rule="nonzero"/>
  <path id="path18" d="m31.09765,107.52735l-29.97265,-16.85937l29.97265,-16.85937l0,33.71874zm0,0" stroke-miterlimit="10" stroke="rgb(0%, 0%, 0%)" fill="rgb(100%, 100%, 100%)" fill-rule="nonzero"/>
  <path transform="rotate(-7.14004 136.621 72.9521)" stroke="rgb(0%, 0%, 0%)" id="path16" d="m171.69661,72.95207c0,1.10127 -0.05282,2.19864 -0.1666,3.29213c-0.11377,1.09737 -0.28038,2.18307 -0.50387,3.261c-0.22755,1.07792 -0.50388,2.14416 -0.83708,3.19873c-0.3332,1.05067 -0.71924,2.08579 -1.16215,3.10145c-0.43885,1.01955 -0.93053,2.01186 -1.47098,2.98082c-0.54044,0.97284 -1.12965,1.91457 -1.76762,2.82905c-0.63798,0.91448 -1.3247,1.79782 -2.05206,2.64615c-0.72737,0.85222 -1.49942,1.66551 -2.31211,2.4438c-0.8127,0.77828 -1.66197,1.51375 -2.55187,2.2142c-0.88583,0.69656 -1.80825,1.35032 -2.76317,1.96128c-0.95492,0.61483 -1.93828,1.17909 -2.95414,1.69664c-1.01181,0.51756 -2.048,0.98842 -3.10856,1.40868c-1.06464,0.42027 -2.14145,0.79385 -3.24266,1.11294c-1.10121,0.31909 -2.21053,0.58372 -3.34018,0.79772c-1.12558,0.21792 -2.2593,0.37747 -3.4052,0.48643c-1.14184,0.10507 -2.28774,0.15955 -3.4377,0.15955c-1.14996,0 -2.29586,-0.05448 -3.4377,-0.15955c-1.14183,-0.10895 -2.2796,-0.2685 -3.40519,-0.48643c-1.12558,-0.21402 -2.23898,-0.47865 -3.34018,-0.79772c-1.09714,-0.31909 -2.17802,-0.69267 -3.23859,-1.11294c-1.06057,-0.42027 -2.10082,-0.89113 -3.11262,-1.40868c-1.01181,-0.51756 -1.99924,-1.08181 -2.95416,-1.69664c-0.95491,-0.61096 -1.87732,-1.26471 -2.76317,-1.96128c-0.8899,-0.70045 -1.73916,-1.43592 -2.55186,-2.2142c-0.8127,-0.77828 -1.5807,-1.59159 -2.31212,-2.4438c-0.72737,-0.84833 -1.41003,-1.73167 -2.04799,-2.64615c-0.63796,-0.91448 -1.23123,-1.8562 -1.77168,-2.82905c-0.54044,-0.96897 -1.03211,-1.96127 -1.47098,-2.98082c-0.43885,-1.01565 -0.82488,-2.05077 -1.15809,-3.10145c-0.3332,-1.05458 -0.61358,-2.12082 -0.83708,-3.19873c-0.2235,-1.07792 -0.39415,-2.16363 -0.50387,-3.261c-0.11378,-1.09349 -0.17067,-2.19086 -0.17067,-3.29213c0,-1.10127 0.05689,-2.19864 0.17067,-3.29213c0.10972,-1.09348 0.28038,-2.18307 0.50387,-3.26098c0.2235,-1.07792 0.50387,-2.14417 0.83708,-3.19873c0.3332,-1.05067 0.71924,-2.08578 1.15809,-3.10145c0.43886,-1.01955 0.93053,-2.01186 1.47098,-2.98082c0.54045,-0.96897 1.13372,-1.91457 1.77168,-2.82905c0.63796,-0.91447 1.32063,-1.79782 2.04799,-2.64615c0.73142,-0.85222 1.49942,-1.66551 2.31212,-2.44379c0.8127,-0.77828 1.66195,-1.51377 2.55186,-2.21421c0.88583,-0.69656 1.80826,-1.35032 2.76317,-1.96127c0.95492,-0.61095 1.94235,-1.17909 2.95416,-1.69666c1.01181,-0.51756 2.05205,-0.98841 3.11262,-1.40868c1.06057,-0.42027 2.14145,-0.78996 3.23859,-1.10905c1.1012,-0.32299 2.21459,-0.58759 3.34018,-0.80163c1.12558,-0.21404 2.26335,-0.37746 3.40519,-0.48643c1.14184,-0.10507 2.28774,-0.15954 3.4377,-0.15954c1.14996,0 2.29586,0.05448 3.4377,0.15954c1.1459,0.10896 2.2796,0.2724 3.4052,0.48643c1.12965,0.21404 2.23897,0.47865 3.34018,0.80163c1.10121,0.31909 2.17802,0.68878 3.24266,1.10905c1.06057,0.42027 2.09675,0.89113 3.10856,1.40868c1.01587,0.51756 1.99922,1.08571 2.95414,1.69666c0.95492,0.61095 1.87732,1.26471 2.76317,1.96127c0.8899,0.70045 1.73916,1.43592 2.55187,2.21421c0.8127,0.77828 1.58475,1.59158 2.31211,2.44379c0.72737,0.84833 1.41409,1.73168 2.05206,2.64615c0.63796,0.91448 1.22717,1.86009 1.76762,2.82905c0.54044,0.96897 1.03213,1.96127 1.47098,2.98082c0.44292,1.01565 0.82895,2.05077 1.16215,3.10145c0.3332,1.05458 0.60952,2.12082 0.83708,3.19873c0.22349,1.07792 0.3901,2.16751 0.50387,3.26098c0.11378,1.09349 0.1666,2.19086 0.1666,3.29213zm0,0" stroke-miterlimit="4" fill="rgb(100%, 100%, 100%)" fill-rule="nonzero"/>
  <path transform="rotate(0.00463698 136.979 72.8978)" id="path20" d="m31.37794,86.6561l211.20094,-27.51655" stroke-miterlimit="10" fill="none" stroke="rgb(0%, 0%, 0%)"/>
  <path transform="rotate(8.72137 242.875 59.5228)" stroke="null" id="path22" d="m245.76962,57.94268l-4.20313,4.08203l0.45703,-2.89844l-2.04297,-2.10546l5.78907,0.92187zm0,0" fill="rgb(0%, 0%, 0%)" fill-rule="nonzero"/>
  <g stroke="null" id="g26" clip-path="url(#clip-1)">
   <path stroke="#000000" id="path24" d="m270.94769,44.0163l-4.20313,4.08203l0.45703,-2.89844l-2.04297,-2.10546l5.78907,0.92187zm0,0" stroke-miterlimit="10" fill="none"/>
  </g>
  <ellipse stroke="#000" ry="5" rx="4.80769" id="svg_4" cy="78.05928" cx="100.82813" fill="#11dbdb"/>
  <ellipse stroke="#000" ry="1.74243" rx="1.39861" id="svg_7" cy="76.04236" cx="113.16127" fill="#aa56ff"/>
  <ellipse stroke="#000" ry="1.74243" rx="1.39861" id="svg_11" cy="70.61369" cx="151.88032" fill="#aa56ff"/>
  <ellipse stroke="#000" ry="1.74243" rx="1.39861" id="svg_10" cy="69.84887" cx="163.08243" fill="#aa56ff"/>
  <ellipse stroke="#000" ry="1.74243" rx="1.39861" id="svg_9" cy="72.2161" cx="140.42392" fill="#aa56ff"/>
  <g stroke="null" id="svg_2">
   <g stroke="null" id="svg_8">
    <g stroke="null" id="svg_12">
     <path stroke="null" id="svg_13" d="m155.50838,60.64558c-0.05389,-0.00534 -0.10126,0.00223 -0.15262,0.00149c-0.00333,0 -0.00678,-0.00149 -0.01011,-0.00149c-15.21784,-0.58801 -31.2133,9.27371 -29.83092,28.35513c0.00545,0.0773 0.02262,0.1457 0.03513,0.21766c-0.01996,0.19749 -0.01996,0.40417 0.02302,0.62881c0.83443,4.3545 -0.44629,8.18271 -3.65174,10.85227c-0.1469,0.12196 -0.25947,0.26218 -0.3578,0.40832c-0.32401,0.2374 -0.57975,0.60136 -0.7176,1.04203c-0.60131,1.92427 -0.14451,3.88326 1.23455,5.22204c0.22727,0.21989 0.4906,0.3699 0.76457,0.45046c0.89018,0.54854 1.82095,0.9131 2.78751,1.16786c-0.19866,1.19501 -0.101,2.40337 0.41515,3.54111c-0.96376,2.09461 -0.32401,4.40539 1.57878,5.66658c0.10738,0.07152 0.2145,0.12508 0.31988,0.16648c0.32294,0.4288 0.35407,1.11741 0.23512,1.77975c-0.03686,0.20253 -0.04151,0.40521 -0.02768,0.6027c-0.00838,0.17938 -0.00333,0.36174 0.02768,0.54557c0.50164,2.93381 2.74905,4.55376 5.3206,4.60585c0.13852,0.00312 0.26626,-0.01291 0.38681,-0.04006c0.11896,0.00608 0.24363,-0.00149 0.37231,-0.02478c4.12983,-0.74677 8.83195,-0.32939 10.38318,4.72855c0.31016,1.01043 1.13887,1.35318 1.88149,1.21979c0.25029,0.20951 0.57975,0.3285 0.99503,0.29615c7.48351,-0.58326 14.90116,-1.79548 22.33171,-2.90755c0.26293,-0.03932 0.4906,-0.13413 0.68713,-0.26841c0.90083,-0.31337 1.62841,-1.43746 1.04666,-2.64908c-4.96492,-10.32213 5.09998,-21.58317 7.01021,-31.4992c0.04191,-0.2144 0.04258,-0.41293 0.02568,-0.6021c2.01894,-16.28634 -8.08721,-31.99684 -23.11371,-33.50596l-0.00001,0.00001l-0.00001,0.00002zm19.94406,32.77967c-0.01956,0.15075 -0.02222,0.29497 -0.01477,0.43355c-2.0751,10.61012 -11.17503,20.86741 -7.5724,31.97696c-6.76684,1.02467 -13.52916,2.0765 -20.3455,2.60843c-0.0483,0.00371 -0.09048,0.0181 -0.13679,0.02641c-2.43622,-6.04641 -8.10477,-7.13059 -13.71331,-6.18351c-0.05602,-0.00757 -0.10805,-0.02122 -0.16819,-0.02255c-0.63856,-0.01365 -0.97202,-0.08739 -1.47033,-0.42643c0.04364,0.01514 -0.25601,-0.25164 -0.25335,-0.24719c-0.04284,-0.04822 -0.06959,-0.07686 -0.08915,-0.0957c0,-0.01439 -0.01716,-0.05727 -0.0801,-0.17107c-0.09487,-0.16959 -0.16486,-0.40832 -0.22301,-0.67807c0.28914,-2.2271 -0.27796,-4.16191 -1.95161,-5.58586c-0.13453,-0.1138 -0.28515,-0.17775 -0.44083,-0.22004c-0.0483,-0.04526 -0.09527,-0.08888 -0.14597,-0.146c0.00918,0.00445 0.00067,-0.0181 -0.02834,-0.07018c0,-0.04599 -0.00279,-0.06098 -0.00745,-0.05653c0.01996,-0.09629 0.03912,-0.19289 0.06959,-0.28636c0.00067,-0.00371 0.24363,-0.42406 0.32401,-0.55077c0.22461,-0.35343 0.27065,-0.78208 0.19999,-1.19427c0.0668,-0.40669 0.01929,-0.83164 -0.19999,-1.18581c-0.61647,-0.99604 -0.49525,-1.8437 0,-2.89093c0.70922,-1.49873 -0.56831,-2.86675 -1.69999,-2.72668c-0.01184,-0.00163 -0.02236,-0.00608 -0.0338,-0.00831c-1.14805,-0.16885 -2.25779,-0.54335 -3.25269,-1.20629c-0.07132,-0.04674 -0.14131,-0.07537 -0.21117,-0.11084c-0.04976,-0.08057 -0.09594,-0.16277 -0.13759,-0.24778c-0.00705,-0.02344 -0.01251,-0.04377 -0.02222,-0.077c-0.00811,-0.04214 -0.01384,-0.07003 -0.01929,-0.09719c-0.00279,-0.08354 -0.00067,-0.16573 0.00266,-0.24942c0.00545,-0.02255 0.01597,-0.07463 0.02981,-0.1552c4.14021,-3.60743 5.91857,-8.56581 4.91117,-14.36133c0.002,-0.0727 0.00878,-0.14051 0.00333,-0.21782c-1.24266,-17.15181 13.06717,-25.24179 26.56972,-24.72055c0.04258,0.00149 0.08037,-0.00683 0.12162,-0.00831c0.0149,0.00149 0.02701,0.00668 0.04178,0.00831c12.81914,1.28774 21.77059,15.22858 19.94419,29.14434l-0.00003,-0.00001z"/>
    </g>
   </g>
   <g stroke="null" id="svg_14"/>
   <g stroke="null" id="svg_15"/>
   <g stroke="null" id="svg_16"/>
   <g stroke="null" id="svg_17"/>
   <g stroke="null" id="svg_18"/>
   <g stroke="null" id="svg_19"/>
   <g stroke="null" id="svg_20"/>
   <g stroke="null" id="svg_21"/>
   <g stroke="null" id="svg_22"/>
   <g stroke="null" id="svg_23"/>
   <g stroke="null" id="svg_24"/>
   <g stroke="null" id="svg_25"/>
   <g stroke="null" id="svg_26"/>
   <g stroke="null" id="svg_27"/>
   <g stroke="null" id="svg_28"/>
  </g>
  <ellipse stroke="#000" ry="5" rx="4.80769" id="svg_1" cy="74.38515" cx="127.29394" fill="#0606e5"/>
  <ellipse stroke="#000" ry="5" rx="4.80769" id="svg_3" cy="68.41445" cx="173.4061" fill="#bf0000"/>
 </g>
</svg>