<svg width="277.91998" height="165.119995" xmlns="http://www.w3.org/2000/svg" version="1.1" content="%3Cmxfile%20host%3D%22app.diagrams.net%22%20modified%3D%222022-08-25T10%3A37%3A03.414Z%22%20agent%3D%225.0%20(Macintosh%3B%20Intel%20Mac%20OS%20X%2010_15_7)%20AppleWebKit%2F537.36%20(KHTML%2C%20like%20Gecko)%20Chrome%2F104.0.0.0%20Safari%2F537.36%22%20etag%3D%22jOnmD7fQEshyFEw38uSC%22%20version%3D%2220.2.6%22%3E%3Cdiagram%20id%3D%226f3RukWasASyZyXMdSxa%22%20name%3D%22Page-1%22%3EtZVNb6MwEIZ%2FDceNAEOAY%2FOx7R4qrRSpuz1aMAVrDUbGFLK%2Ffoe1%2BU6VVEpziDyv7RnzzIuxyD5vHyUts2eRALdcO2ktcrBcNwps%2FO%2BEsxZ8L9BCKlmiJWcUTuwvGNHsS2uWQDVbqITgipVzMRZFAbGaaVRK0cyXvQk%2Br1rS1FS0R%2BEUUw6rZb9YojKthm4w6k%2FA0qyv7GwjPZPTfrFJXGU0Ec1EIkeL7KUQSo%2Fydg%2B8Y9dz0fu%2BfzA7HExCoW7Z8Oy9lg08vLycozrblz9Cdoy%2BmSzvlNfmgc1h1bkn0GRMwamkcRc32GSL7DKVc4wcHNKq1NzfWAtYalcpKf4MsAgqpgZIBe2Hh3cGJGglEDkoecYlZoMbGorGRoM%2FmrEpThRsfK1m05aMMjVmSIf8Iy8cGGSfwRde54dp0KwY7D5L8g7cCCGbwL%2BKLrLX3Hrt7tDc68yUZLRI%2BQ3QpFBUMVFgiN2w70PNiRZui9bIvAvIvK%2FyGdne4LMieeguPIxiTquKxUtSdZF0vjp0lKBl6vdk%2FNqNO6vo8NBO5g5nE%2BiakKTLy3EBFs8lahnDNROsGzAB7F8A3GsSOHb9fX6MS9RNhZ%2BC4QGH%2FnrbcBMNv21gk3m73UUf9dOYJNMrdpHX9xe%2BsRfvkKIyBbVK9N8TA4VLNsFw%2FFLo5ePnlhz%2FAQ%3D%3D%3C%2Fdiagram%3E%3C%2Fmxfile%3E">
 <defs id="defs8">
  <clipPath id="clip-0">
   <path clip-rule="nonzero" d="m0,0l277.92188,0l0,164.85156l-277.92188,0l0,-164.85156zm0,0" id="path2"/>
  </clipPath>
  <clipPath id="clip-1">
   <path clip-rule="nonzero" d="m253,0l24.92188,0l0,22l-24.92188,0l0,-22zm0,0" id="path5"/>
  </clipPath>
 </defs>
 <g>
  <title>Layer 1</title>
  <g clip-path="url(#clip-0)" id="g12">
   <path fill-rule="nonzero" fill="#ffffff" d="m0.35842,-0.39063l278,0l0,164.85156l-278,0l0,-164.85156zm0,0" id="path10"/>
  </g>
  <path fill-rule="nonzero" fill="rgb(100%, 100%, 100%)" stroke-width="3" stroke="rgb(0%, 0%, 0%)" stroke-miterlimit="4" d="m68.63854,16.38694l147.99218,0l0,147.99218l-147.99218,0l0,-147.99218zm0,0" id="path14"/>
  <path fill-rule="nonzero" fill="rgb(100%, 100%, 100%)" stroke="rgb(0%, 0%, 0%)" stroke-miterlimit="4" d="m186.63922,131.94428c0,1.10547 -0.05078,2.20703 -0.16016,3.30469c-0.10937,1.10156 -0.26953,2.1914 -0.48437,3.27344c-0.21875,1.08203 -0.48438,2.15234 -0.80469,3.21094c-0.32031,1.05468 -0.69141,2.09375 -1.11719,3.11328c-0.42187,1.02344 -0.89453,2.01953 -1.41406,2.99219c-0.51953,0.97656 -1.08594,1.92187 -1.69922,2.83984c-0.61329,0.91797 -1.27344,1.80468 -1.97266,2.65625c-0.69922,0.85547 -1.4414,1.67187 -2.22265,2.45313c-0.78125,0.78125 -1.59766,1.51953 -2.45313,2.22265c-0.85156,0.69922 -1.73828,1.35547 -2.65625,1.96876c-0.91797,0.61718 -1.86328,1.18359 -2.83984,1.70312c-0.97266,0.51953 -1.96876,0.99219 -2.98828,1.41406c-1.02344,0.42188 -2.05859,0.79688 -3.11719,1.11719c-1.0586,0.32031 -2.125,0.58594 -3.21094,0.80077c-1.08203,0.21875 -2.17188,0.37891 -3.27344,0.48828c-1.09766,0.10547 -2.19922,0.16016 -3.30469,0.16016c-1.10547,0 -2.20703,-0.05469 -3.30469,-0.16016c-1.09765,-0.10937 -2.1914,-0.26953 -3.27343,-0.48828c-1.08203,-0.21484 -2.15235,-0.48047 -3.21094,-0.80077c-1.05469,-0.32031 -2.09375,-0.69531 -3.11328,-1.11719c-1.01953,-0.42187 -2.01953,-0.89453 -2.99219,-1.41406c-0.97266,-0.51953 -1.92188,-1.08594 -2.83985,-1.70312c-0.91796,-0.61329 -1.80468,-1.26954 -2.65625,-1.96876c-0.85547,-0.70312 -1.67187,-1.4414 -2.45312,-2.22265c-0.78125,-0.78125 -1.51954,-1.59766 -2.22266,-2.45313c-0.69922,-0.85156 -1.35547,-1.73828 -1.96875,-2.65625c-0.61328,-0.91797 -1.18359,-1.86328 -1.70313,-2.83984c-0.51953,-0.97266 -0.99218,-1.96875 -1.41406,-2.99219c-0.42187,-1.01953 -0.79297,-2.05859 -1.11328,-3.11328c-0.32031,-1.0586 -0.58984,-2.12891 -0.80469,-3.21094c-0.21485,-1.08203 -0.3789,-2.17188 -0.48437,-3.27344c-0.10938,-1.09766 -0.16406,-2.19922 -0.16406,-3.30469c0,-1.10547 0.05469,-2.20703 0.16406,-3.30469c0.10547,-1.09765 0.26953,-2.1914 0.48437,-3.27343c0.21485,-1.08203 0.48437,-2.15235 0.80469,-3.21094c0.32031,-1.05468 0.69141,-2.09374 1.11328,-3.11328c0.42188,-1.02344 0.89453,-2.01953 1.41406,-2.99219c0.51954,-0.97266 1.08985,-1.92188 1.70313,-2.83985c0.61328,-0.91796 1.26953,-1.80468 1.96875,-2.65625c0.70312,-0.85547 1.4414,-1.67187 2.22266,-2.45312c0.78125,-0.78125 1.59765,-1.51954 2.45312,-2.22266c0.85156,-0.69922 1.73829,-1.35547 2.65625,-1.96875c0.91797,-0.61328 1.86719,-1.18359 2.83985,-1.70313c0.97266,-0.51953 1.97265,-0.99218 2.99219,-1.41406c1.01953,-0.42187 2.05859,-0.79297 3.11328,-1.11328c1.05859,-0.32422 2.1289,-0.58984 3.21094,-0.80469c1.08203,-0.21485 2.17578,-0.3789 3.27343,-0.48828c1.09766,-0.10547 2.19922,-0.16015 3.30469,-0.16015c1.10547,0 2.20703,0.05469 3.30469,0.16015c1.10156,0.10938 2.1914,0.27344 3.27344,0.48828c1.08594,0.21485 2.15234,0.48047 3.21094,0.80469c1.0586,0.32031 2.09375,0.69141 3.11719,1.11328c1.01953,0.42188 2.01562,0.89453 2.98828,1.41406c0.97656,0.51954 1.92187,1.08985 2.83984,1.70313c0.91797,0.61328 1.80468,1.26953 2.65625,1.96875c0.85547,0.70312 1.67187,1.4414 2.45313,2.22266c0.78125,0.78125 1.52343,1.59765 2.22265,2.45312c0.69922,0.85156 1.35937,1.73829 1.97266,2.65625c0.61328,0.91797 1.17969,1.86719 1.69922,2.83985c0.51953,0.97266 0.99219,1.96875 1.41406,2.99219c0.42578,1.01953 0.79688,2.05859 1.11719,3.11328c0.32031,1.0586 0.58594,2.12891 0.80469,3.21094c0.21484,1.08203 0.375,2.17578 0.48437,3.27343c0.10938,1.09766 0.16016,2.19922 0.16016,3.30469zm0,0" id="svg_25"/>
  <path fill-rule="nonzero" fill="rgb(100%, 100%, 100%)" stroke="rgb(0%, 0%, 0%)" stroke-miterlimit="4" d="m176.2415,47.55694c0,1.10547 -0.05078,2.20703 -0.16016,3.30469c-0.10937,1.10156 -0.26953,2.1914 -0.48437,3.27344c-0.21875,1.08203 -0.48438,2.15234 -0.80469,3.21094c-0.32031,1.05468 -0.69141,2.09375 -1.11719,3.11328c-0.42187,1.02344 -0.89453,2.01953 -1.41406,2.99219c-0.51953,0.97656 -1.08594,1.92187 -1.69922,2.83984c-0.61329,0.91797 -1.27344,1.80468 -1.97266,2.65625c-0.69922,0.85547 -1.4414,1.67187 -2.22265,2.45313c-0.78125,0.78125 -1.59766,1.51953 -2.45313,2.22265c-0.85156,0.69922 -1.73828,1.35547 -2.65625,1.96876c-0.91797,0.61718 -1.86328,1.18359 -2.83984,1.70312c-0.97266,0.51953 -1.96876,0.99219 -2.98828,1.41406c-1.02344,0.42188 -2.05859,0.79688 -3.11719,1.11719c-1.0586,0.32031 -2.125,0.58594 -3.21094,0.80077c-1.08203,0.21875 -2.17188,0.37891 -3.27344,0.48828c-1.09766,0.10547 -2.19922,0.16016 -3.30469,0.16016c-1.10547,0 -2.20703,-0.05469 -3.30469,-0.16016c-1.09765,-0.10937 -2.1914,-0.26953 -3.27343,-0.48828c-1.08203,-0.21484 -2.15235,-0.48047 -3.21094,-0.80077c-1.05469,-0.32031 -2.09375,-0.69531 -3.11328,-1.11719c-1.01953,-0.42187 -2.01953,-0.89453 -2.99219,-1.41406c-0.97266,-0.51953 -1.92188,-1.08594 -2.83985,-1.70312c-0.91796,-0.61329 -1.80468,-1.26954 -2.65625,-1.96876c-0.85547,-0.70312 -1.67187,-1.4414 -2.45312,-2.22265c-0.78125,-0.78125 -1.51954,-1.59766 -2.22266,-2.45313c-0.69922,-0.85156 -1.35547,-1.73828 -1.96875,-2.65625c-0.61328,-0.91797 -1.18359,-1.86328 -1.70313,-2.83984c-0.51953,-0.97266 -0.99218,-1.96875 -1.41406,-2.99219c-0.42187,-1.01953 -0.79297,-2.05859 -1.11328,-3.11328c-0.32031,-1.0586 -0.58984,-2.12891 -0.80469,-3.21094c-0.21485,-1.08203 -0.3789,-2.17188 -0.48437,-3.27344c-0.10938,-1.09766 -0.16406,-2.19922 -0.16406,-3.30469c0,-1.10547 0.05469,-2.20703 0.16406,-3.30469c0.10547,-1.09765 0.26953,-2.1914 0.48437,-3.27343c0.21485,-1.08203 0.48437,-2.15235 0.80469,-3.21094c0.32031,-1.05468 0.69141,-2.09374 1.11328,-3.11328c0.42188,-1.02344 0.89453,-2.01953 1.41406,-2.99219c0.51954,-0.97266 1.08985,-1.92188 1.70313,-2.83985c0.61328,-0.91796 1.26953,-1.80468 1.96875,-2.65625c0.70312,-0.85547 1.4414,-1.67187 2.22266,-2.45312c0.78125,-0.78125 1.59765,-1.51954 2.45312,-2.22266c0.85156,-0.69922 1.73829,-1.35547 2.65625,-1.96875c0.91797,-0.61328 1.86719,-1.18359 2.83985,-1.70313c0.97266,-0.51953 1.97265,-0.99218 2.99219,-1.41406c1.01953,-0.42187 2.05859,-0.79297 3.11328,-1.11328c1.05859,-0.32422 2.1289,-0.58984 3.21094,-0.80469c1.08203,-0.21485 2.17578,-0.3789 3.27343,-0.48828c1.09766,-0.10547 2.19922,-0.16015 3.30469,-0.16015c1.10547,0 2.20703,0.05469 3.30469,0.16015c1.10156,0.10938 2.1914,0.27344 3.27344,0.48828c1.08594,0.21485 2.15234,0.48047 3.21094,0.80469c1.0586,0.32031 2.09375,0.69141 3.11719,1.11328c1.01953,0.42188 2.01562,0.89453 2.98828,1.41406c0.97656,0.51954 1.92187,1.08985 2.83984,1.70313c0.91797,0.61328 1.80468,1.26953 2.65625,1.96875c0.85547,0.70312 1.67187,1.4414 2.45313,2.22266c0.78125,0.78125 1.52343,1.59765 2.22265,2.45312c0.69922,0.85156 1.35937,1.73829 1.97266,2.65625c0.61328,0.91797 1.17969,1.86719 1.69922,2.83985c0.51953,0.97266 0.99219,1.96875 1.41406,2.99219c0.42578,1.01953 0.79688,2.05859 1.11719,3.11328c0.32031,1.0586 0.58594,2.12891 0.80469,3.21094c0.21484,1.08203 0.375,2.17578 0.48437,3.27343c0.10938,1.09766 0.16016,2.19922 0.16016,3.30469zm0,0" id="path16"/>
  <path fill-rule="nonzero" fill="rgb(100%, 100%, 100%)" stroke="rgb(0%, 0%, 0%)" stroke-miterlimit="10" d="m31.09765,107.52735l-29.97265,-16.85937l29.97265,-16.85937l0,33.71874zm0,0" id="path18"/>
  <path fill="none" stroke-miterlimit="10" d="m31.48828,82.23828l235.23437,-74.42969" id="path20" stroke="rgb(0%, 0%, 0%)"/>
  <path fill-rule="nonzero" fill="rgb(0%, 0%, 0%)" d="m270.07813,6.39721l-4.20313,4.08203l0.45703,-2.89844l-2.04297,-2.10546l5.78907,0.92187zm0,0" id="path22"/>
  <g stroke="null" clip-path="url(#clip-1)" id="g26">
   <path stroke="#000000" fill="none" stroke-miterlimit="10" d="m266.88905,135.00854l-5.52621,-5.39502l0.6009,3.83072l-2.68607,2.78268l7.61138,-1.21839zm0,0" id="path24"/>
  </g>
  <ellipse fill="#0606e5" cx="142.65028" cy="46.48783" id="svg_1" rx="4.80769" ry="5" stroke="#000"/>
  <ellipse fill="#bf0000" cx="173.73233" cy="37.24769" id="svg_3" rx="4.80769" ry="5" stroke="#000"/>
  <ellipse fill="#11dbdb" cx="110.65541" cy="57.2477" id="svg_4" rx="4.80769" ry="5" stroke="#000"/>
  <ellipse fill="#aa56ff" cx="120.05029" cy="53.95439" id="svg_5" rx="1.39861" ry="1.74243" stroke="#000"/>
  <ellipse fill="#aa56ff" cx="126.03739" cy="52.02321" id="svg_6" rx="1.39861" ry="1.74243" stroke="#000"/>
  <ellipse fill="#aa56ff" cx="132.11051" cy="50.08773" id="svg_7" rx="1.39861" ry="1.74243" stroke="#000"/>
  <ellipse fill="#aa56ff" cx="152.52341" cy="43.73934" id="svg_9" rx="1.39861" ry="1.74243" stroke="#000"/>
  <ellipse fill="#aa56ff" cx="158.54492" cy="41.69633" id="svg_10" rx="1.39861" ry="1.74243" stroke="#000"/>
  <ellipse fill="#aa56ff" cx="164.67395" cy="39.9759" id="svg_11" rx="1.39861" ry="1.74243" stroke="#000"/>
  <line stroke="rgb(0%, 0%, 0%)" fill="none" x1="144.90704" y1="53.55724" x2="147.00775" y2="59.53678" id="svg_2"/>
  <line fill="none" x1="148.29807" y1="64.37549" x2="149.60711" y2="70.18194" id="svg_8" stroke="rgb(0%, 0%, 0%)"/>
  <line fill="none" stroke="rgb(0%, 0%, 0%)" x1="150.91615" y1="75.24818" x2="151.88389" y2="81.05463" id="svg_12"/>
  <line fill="none" x1="152.8142" y1="86.63355" x2="153.69338" y2="92.6782" id="svg_13" stroke="rgb(0%, 0%, 0%)"/>
  <path fill="none" stroke="rgb(0%, 0%, 0%)" opacity="undefined" d="m154.42711,108.24646l-0.26634,5.5524" id="svg_15"/>
  <line fill="none" x1="154.11681" y1="118.54706" x2="153.55744" y2="124.14132" id="svg_16" stroke="rgb(0%, 0%, 0%)"/>
  <line stroke="rgb(0%, 0%, 0%)" fill="none" x1="152.92544" y1="127.21863" x2="152.0699" y2="130.75133" id="svg_17"/>
  <line fill="none" x1="154.07602" y1="98.06888" x2="154.16657" y2="103.32489" id="svg_22" stroke="rgb(0%, 0%, 0%)"/>
  <line stroke="rgb(0%, 0%, 0%)" fill="none" x1="153.62909" y1="123.84512" x2="151.417" y2="112.64064" id="svg_23"/>
  <path stroke="rgb(0%, 0%, 0%)" fill="none" opacity="undefined" d="m153.70519,124.16158l5.50003,-10.47898" id="svg_24"/>
  <path stroke="rgb(0%, 0%, 0%)" fill="none" stroke-miterlimit="10" d="m31.79131,97.99583l228.55108,60.52063" id="svg_26"/>
  <ellipse fill="#0606e5" cx="153.0592" cy="130.5027" id="svg_14" rx="4.80769" ry="5" stroke="#000"/>
  <ellipse fill="#bf0000" cx="185.62824" cy="138.73468" id="svg_18" rx="4.80769" ry="5" stroke="#000"/>
  <ellipse fill="#11dbdb" cx="120.32084" cy="121.93171" id="svg_19" rx="4.80769" ry="5" stroke="#000"/>
  <ellipse fill="#aa56ff" cx="129.22034" cy="123.69082" id="svg_20" rx="1.39861" ry="1.74243" stroke="#000"/>
  <ellipse fill="#aa56ff" cx="136.54211" cy="125.6176" id="svg_21" rx="1.39861" ry="1.74243" stroke="#000"/>
  <ellipse fill="#aa56ff" cx="143.86388" cy="127.54438" id="svg_27" rx="1.39861" ry="1.74243" stroke="#000"/>
  <ellipse fill="#aa56ff" cx="163.51706" cy="132.93937" id="svg_28" rx="1.39861" ry="1.74243" stroke="#000"/>
  <ellipse fill="#aa56ff" cx="170.83884" cy="134.86616" id="svg_29" rx="1.39861" ry="1.74243" stroke="#000"/>
  <ellipse fill="#aa56ff" cx="177.58257" cy="136.60026" id="svg_30" rx="1.39861" ry="1.74243" stroke="#000"/>
  <g clip-path="url(#clip-1)" id="svg_32" stroke="null">
   <path fill="none" stroke-miterlimit="10" d="m256.20252,129.11304l-4.20313,4.08203l0.45703,-2.89844l-2.04297,-2.10546l5.78907,0.92187zm0,0" id="svg_31" stroke="#000000"/>
  </g>
  <g clip-path="url(#clip-1)" id="svg_34" stroke="null">
   <path fill="none" stroke-miterlimit="10" d="m266.25037,148.73026l-4.20313,4.08203l0.45703,-2.89844l-2.04297,-2.10546l5.78907,0.92187zm0,0" id="svg_33" stroke="#000000"/>
  </g>
  <path stroke="null" fill-rule="nonzero" fill="rgb(0%, 0%, 0%)" d="m264.61117,159.69382l-5.03006,-5.02337l0.54695,3.56683l-2.44491,2.59099l6.92802,-1.13446zm0,0" id="svg_35"/>
 </g>
</svg>